<svg xmlns="http://www.w3.org/2000/svg" viewBox="0.00 0.00 512.00 512.00" width="512" height="512">
  <rect fill="#fff" width="512" height="512"/>
  <g stroke-width=".7" transform="translate(0 112.3)" font-size="5.8">
    <g class="scaler">
      <rect fill="#2d3f4f" stroke-width="0.7" width="512.7" height="288.4" font-size="5.8"/>
      <g class="canvas">
        <g class="chart">
          <g stroke-width="6.4" stroke="#36485c" class="series s0">
            <!-- Brazil: reduced proportion -->
            <path d="M 221.9 43.9
                     a 105.1 105.1 0 0 1 52.6 196.2
                     l -36.8 -63.8
                     a 31.5 31.5 0 0 0 -15.8 -58.8
                     z"
                  fill="#ff6c6c" stroke="#36485c" stroke-width="6.4" class="arc"/>
            <!-- Vietnam: increased proportion -->
            <path d="M 274.5 240.1
                     A 105.1 105.1 0 0 1 114.9 169.9
                     l 73.1 -13.6
                     a 31.5 31.5 0 0 0 49.7 20.0
                     z"
                  fill="#4dd3ff" stroke="#36485c" stroke-width="6.4" class="arc"/>
            <!-- Colombia (unchanged) -->
            <path d="M 114.9 169.9
                     a 105.1 105.1 0 0 1 12.0 -78.8
                     l 63.7 40.0
                     a 31.5 31.5 0 0 0 -3.6 23.6
                     z"
                  fill="#18bd9b" stroke="#36485c" stroke-width="6.4" class="arc"/>
            <!-- Indonesia (unchanged) -->
            <path d="M 126.9 91.1
                     a 105.1 105.1 0 0 1 48.1 -40.4
                     l 29.3 68.7
                     a 31.5 31.5 0 0 0 -14.4 12.1
                     z"
                  fill="#ffd438" stroke="#36485c" stroke-width="6.4" class="arc"/>
            <!-- Ethiopia (unchanged) -->
            <path d="M 175.0 50.7
                     a 105.1 105.1 0 0 1 46.9 -7.8
                     v 73.6
                     a 31.5 31.5 0 0 0 -14.1 2.3
                     z"
                  fill="#ffaafd" stroke="#36485c" stroke-width="6.4" class="arc"/>
          </g>
        </g>
      </g>
      <text fill="#ebe9dd" stroke-width="0.7" transform="translate(16 16)" dy="22" font-size="14.1" class="label">Coffee Production</text>
      <g class="legend">
        <g class="row">
          <text fill="#ebe9dd" stroke-width="0.7" transform="translate(437.8 16)" dx="28" dy="14" font-size="9" class="key">Brazil</text>
          <path d="M 446.8 27.1 a 5.1 5.1 0 1 1 0 -10.1 a 5.1 5.1 0 1 1 0 10.1"
                fill="#ff6c6c" stroke-width=".7" class="shape"/>
        </g>
        <g class="row">
          <text fill="#ebe9dd" stroke-width="0.7" transform="translate(437.8 35.3)" dx="28" dy="14" font-size="9" class="key">Vietnam</text>
          <path d="M 446.8 46.4 a 5.1 5.1 0 1 1 0 -10.1 a 5.1 5.1 0 1 1 0 10.1"
                fill="#4dd3ff" stroke-width=".7" class="shape"/>
        </g>
        <g class="row">
          <text fill="#ebe9dd" stroke-width="0.7" transform="translate(437.8 54.6)" dx="28" dy="14" font-size="9" class="key">Colombia</text>
          <path d="M 446.8 65.7 a 5.1 5.1 0 1 1 0 -10.1 a 5.1 5.1 0 1 1 0 10.1"
                fill="#18bd9b" stroke-width=".7" class="shape"/>
        </g>
        <g class="row">
          <text fill="#ebe9dd" stroke-width="0.7" transform="translate(437.8 74)" dx="28" dy="14" font-size="9" class="key">Indonesia</text>
          <path d="M 446.8 85.0 a 5.1 5.1 0 1 1 0 -10.1 a 5.1 5.1 0 1 1 0 10.1"
                fill="#ffd438" stroke-width=".7" class="shape"/>
        </g>
        <g class="row">
          <text fill="#ebe9dd" stroke-width="0.7" transform="translate(437.8 93.3)" dx="28" dy="14" font-size="9" class="key">Ethiopia</text>
          <path d="M 446.8 104.3 a 5.1 5.1 0 1 1 0 -10.1 a 5.1 5.1 0 1 1 0 10.1"
                fill="#ffaafd" stroke-width=".7" class="shape"/>
        </g>
      </g>
    </g>
  </g>
</svg>