<svg xmlns="http://www.w3.org/2000/svg" viewBox="0.00 0.00 512.00 512.00" width="512" height="512"><rect fill="#fff" width="512" height="512"/><g stroke-width=".7" transform="translate(0 112.3)" font-size="5.8"><g class="scaler"><rect fill="#1d1e2a" stroke-width="0.7" width="512.7" height="288.4" font-size="5.8"/><g class="canvas"><g class="grid"><g stroke-width=".6" stroke="#ebe9dd" transform="translate(62.2 46.1)" stroke-opacity=".3" class="axis-grid y"><line stroke-width="0.6" stroke="#ebe9dd" transform="translate(0 193.6)" x1="0.6" x2="351.2" font-size="5.8" stroke-opacity=".3" class="grid"/><line stroke-width="0.6" stroke="#ebe9dd" transform="translate(0 165.9)" x1="0.6" x2="351.2" font-size="5.8" stroke-opacity=".3" class="grid"/><line stroke-width="0.6" stroke="#ebe9dd" transform="translate(0 138.3)" x1="0.6" x2="351.2" font-size="5.8" stroke-opacity=".3" class="grid"/><line stroke-width="0.6" stroke="#ebe9dd" transform="translate(0 110.6)" x1="0.6" x2="351.2" font-size="5.8" stroke-opacity=".3" class="grid"/><line stroke-width="0.6" stroke="#ebe9dd" transform="translate(0 83)" x1="0.6" x2="351.2" font-size="5.8" stroke-opacity=".3" class="grid"/><line stroke-width="0.6" stroke="#ebe9dd" transform="translate(0 55.3)" x1="0.6" x2="351.2" font-size="5.8" stroke-opacity=".3" class="grid"/><line stroke-width="0.6" stroke="#ebe9dd" transform="translate(0 27.6)" x1="0.6" x2="351.2" font-size="5.8" stroke-opacity=".3" class="grid"/><line stroke-width="0.6" stroke="#ebe9dd" x1="0.6" x2="351.2" font-size="5.8" stroke-opacity=".3" class="grid"/></g></g><g class="chart"><g class="series s0"><path d="m 1.3 124.9 l 17.5 -5.5 L 36.3 138 l 17.5 -27.7 l 17.5 -9.4 l 17.5 -24.7 l 17.5 -7.7 l 17.5 4.0 l 17.5 -30.5 l 17.5 -6.2 l 17.5 4.4 l 17.5 23.5 l 17.5 25.5 l 17.5 9.8 l 17.5 25.1 l 17.5 7.4 l 17.5 -16.9 l 17.5 -17.5 l 17.5 -8.0 l 17.5 -26.7 l 17.5 -8.6 l 17.5 -8.9" fill="none" stroke="#0cf" stroke-width="3" transform="translate(61.5 46.1)" class="line" clip-path="url(#chart-clipPath-exact)"/></g><g class="series s1"><path d="M 1.3 170.7 q 17.5 -4.5 17.5 -5.5 c 0 -0.3 17.5 -9.4 17.5 -9.4 s 17.5 9.4 17.5 9.4 s 17.5 -18.4 17.5 -18.4 s 17.5 -8.6 17.5 -9.4 s 17.5 -18.8 17.5 -18.4 s 17.5 -4.5 17.5 -4.5 s 17.5 9.4 17.5 4.5 s 17.5 -12.3 17.5 -12.3 s 17.5 -9.4 17.5 -9.4 s 17.5 4.5 17.5 4.5 s 17.5 12.3 17.5 12.3 s 17.5 18.4 17.5 18.4 s 17.5 8.6 17.5 9.4 s 17.5 8.6 17.5 9.4 s 17.5 9.4 17.5 9.4 s 17.5 -12.3 17.5 -12.3 s 17.5 -12.3 17.5 -12.3 s 17.5 -12.3 17.5 -12.3 q 0 -0.3 17.5 -9.4" fill="none" stroke="#f51454" stroke-width="3" transform="translate(61.5 46.1)" class="line" clip-path="url(#chart-clipPath-exact)"/></g></g><g class="axes"><g class="axis-labels"><g class="bottom"><text fill="#ebe9dd" stroke-width="0.7" transform="translate(237.1 259)" dy="16" font-size="10.3" text-anchor="middle" class="label">2023 - 2024</text></g></g><g class="axis bottom"><g transform="translate(62.8 240.3)" class="tick major" display="block"><line stroke-width="0.7" stroke="#333" y2="4.5" font-size="5.8" display="block"/><text fill="#ebe9dd" stroke-width="0.7" y="6.4" dy="7" font-size="9" text-anchor="middle" display="block">Jan</text></g><g transform="translate(113.2 240.3)" class="tick major" display="block"><line stroke-width="0.7" stroke="#333" y2="4.5" font-size="5.8" display="block"/><text fill="#ebe9dd" stroke-width="0.7" y="6.4" dy="7" font-size="9" text-anchor="middle" display="block">Mar</text></g><g transform="translate(163.6 240.3)" class="tick major" display="block"><line stroke-width="0.7" stroke="#333" y2="4.5" font-size="5.8" display="block"/><text fill="#ebe9dd" stroke-width="0.7" y="6.4" dy="7" font-size="9" text-anchor="middle" display="block">May</text></g><g transform="translate(214 240.3)" class="tick major" display="block"><line stroke-width="0.7" stroke="#333" y2="4.5" font-size="5.8" display="block"/><text fill="#ebe9dd" stroke-width="0.7" y="6.4" dy="7" font-size="9" text-anchor="middle" display="block">Jul</text></g><g transform="translate(264.4 240.3)" class="tick major" display="block"><line stroke-width="0.7" stroke="#333" y2="4.5" font-size="5.8" display="block"/><text fill="#ebe9dd" stroke-width="0.7" y="6.4" dy="7" font-size="9" text-anchor="middle" display="block">Sep</text></g><g transform="translate(314.8 240.3)" class="tick major" display="block"><line stroke-width="0.7" stroke="#333" y2="4.5" font-size="5.8" display="block"/><text fill="#ebe9dd" stroke-width="0.7" y="6.4" dy="7" font-size="9" text-anchor="middle" display="block">Nov</text></g><g transform="translate(365.2 240.3)" class="tick major" display="block"><line stroke-width="0.7" stroke="#333" y2="4.5" font-size="5.8" display="block"/><text fill="#ebe9dd" stroke-width="0.7" y="6.4" dy="7" font-size="9" text-anchor="middle" display="block">Jan</text></g><g transform="translate(415.6 240.3)" class="tick major" display="block"><line stroke-width="0.7" stroke="#333" y2="4.5" font-size="5.8" display="block"/><text fill="#ebe9dd" stroke-width="0.7" y="6.4" dy="7" font-size="9" text-anchor="middle" display="block">Mar</text></g><path d="M 62.8 240.3 h 350.6" fill="none" stroke="#ebe9dd" stroke-width="1.3" class="domain"/><path d="M 61.5 240.3 h 1.3" fill="none" stroke="#ebe9dd" stroke-width="1.3" class="filler"/></g><g class="axis left"><g transform="translate(62.2 239.7)" class="tick major" display="block"><line stroke-width="0.7" stroke="#333" x2="-4.5" font-size="5.8" display="block"/><text fill="#ebe9dd" stroke-width="0.7" x="-6.4" dy="7" font-size="9" text-anchor="end" display="block">0</text></g><g transform="translate(62.2 212)" class="tick major" display="block"><line stroke-width="0.7" stroke="#333" x2="-4.5" font-size="5.8" display="block"/><text fill="#ebe9dd" stroke-width="0.7" x="-6.4" dy="7" font-size="9" text-anchor="end" display="block">20</text></g><g transform="translate(62.2 184.4)" class="tick major" display="block"><line stroke-width="0.7" stroke="#333" x2="-4.5" font-size="5.8" display="block"/><text fill="#ebe9dd" stroke-width="0.7" x="-6.4" dy="7" font-size="9" text-anchor="end" display="block">40</text></g><g transform="translate(62.2 156.8)" class="tick major" display="block"><line stroke-width="0.7" stroke="#333" x2="-4.5" font-size="5.8" display="block"/><text fill="#ebe9dd" stroke-width="0.7" x="-6.4" dy="7" font-size="9" text-anchor="end" display="block">60</text></g><g transform="translate(62.2 129.1)" class="tick major" display="block"><line stroke-width="0.7" stroke="#333" x2="-4.5" font-size="5.8" display="block"/><text fill="#ebe9dd" stroke-width="0.7" x="-6.4" dy="7" font-size="9" text-anchor="end" display="block">80</text></g><g transform="translate(62.2 101.5)" class="tick major" display="block"><line stroke-width="0.7" stroke="#333" x2="-4.5" font-size="5.8" display="block"/><text fill="#ebe9dd" stroke-width="0.7" x="-6.4" dy="7" font-size="9" text-anchor="end" display="block">100</text></g><g transform="translate(62.2 73.8)" class="tick major" display="block"><line stroke-width="0.7" stroke="#333" x2="-4.5" font-size="5.8" display="block"/><text fill="#ebe9dd" stroke-width="0.7" x="-6.4" dy="7" font-size="9" text-anchor="end" display="block">120</text></g><path d="M 62.2 46.1 V 239.7" fill="none" stroke="#ebe9dd" stroke-width="1.3" class="domain"/></g></g></g><text fill="#ebe9dd" stroke-width="0.7" transform="translate(16 16)" dy="22" font-size="14.1" class="label">Wind Power Gen.</text><g class="legend"><g class="row"><text fill="#ebe9dd" stroke-width="0.7" transform="translate(425.6 16)" dx="28" dy="14" font-size="9" class="key">Onshore Wind</text><path d="M 434.6 27.1 a 5.1 5.1 0 1 1 0 -10.1 a 5.1 5.1 0 1 1 0 10.1" fill="#0cf" stroke-width=".7" class="shape"/></g><g class="row"><text fill="#ebe9dd" stroke-width="0.7" transform="translate(425.6 35.3)" dx="28" dy="14" font-size="9" class="key">Offshore Wind</text><path d="M 434.6 46.4 a 5.1 5.1 0 1 1 0 -10.1 a 5.1 5.1 0 1 1 0 10.1" fill="#f51454" stroke-width=".7" class="shape"/></g></g></g><clipPath id="chart-clipPath-exact"><rect stroke-width="0.7" width="395.3" height="218.9" font-size="5.8"/></clipPath></g></svg>