<svg xmlns="http://www.w3.org/2000/svg" viewBox="0.00 85.50 512.00 341.00" width="600" height="400">
  <path d="M 110.2 73.1 v 234.1" stroke="#eee" stroke-width=".7" transform="translate(0 73.1)"
    id="grid-y-0" class="grid-y"></path>
  <path d="M 366.8 73.1 v 234.1" stroke="#eee" stroke-width=".7" transform="translate(0 73.1)"
    id="grid-y-1" class="grid-y"></path>
  <path d="M 58.5 283.7 h 354.9" stroke="#eee" stroke-width=".7" transform="translate(0 73.1)"
    id="grid-x-0" class="grid-x"></path>
  <path d="M 58.5 235.3 h 354.9" stroke="#eee" stroke-width=".7" transform="translate(0 73.1)"
    id="grid-x-1" class="grid-x"></path>
  <path d="M 58.5 187 h 354.9" stroke="#eee" stroke-width=".7" transform="translate(0 73.1)"
    id="grid-x-2" class="grid-x"></path>
  <path d="M 58.5 138.6 h 354.9" stroke="#eee" stroke-width=".7" transform="translate(0 73.1)"
    id="grid-x-3" class="grid-x"></path>
  <path d="M 58.5 90.2 h 354.9" stroke="#eee" stroke-width=".7" transform="translate(0 73.1)"
    id="grid-x-4" class="grid-x"></path>
  <path d="M 58.5 302.2 h 354.9" stroke="#444" stroke-width=".7" transform="translate(0 73.1)"
    id="domain-x" class="domain-x"></path>
  <path d="m 62.1 224.8 l 247.6 -2.0 l -247.6 2.0 z " fill="none" stroke="red" stroke-width="1.5"
    transform="translate(58.5 146.2)" id="mark-1-0" class="mark-1"></path>
  <path d="M 64.3 224.8 a 2.9 2.9 0 1 1 -2.9 -2.9 a 2.9 2.9 0 0 1 2.9 2.9" fill="red"
    stroke-width=".7" transform="translate(58.5 146.2)" id="mark-2-0" class="mark-2"></path>
  <path d="M 310.9 222.8 a 2.9 2.9 0 1 1 -2.9 -2.9 a 2.9 2.9 0 0 1 2.9 2.9" fill="red"
    stroke-width=".7" transform="translate(58.5 146.2)" id="mark-2-1" class="mark-2"></path>
  <path d="m 62.1 155.8 l 247.6 -11.7 l -247.6 11.7 z " fill="none" stroke="#4a90c7"
    stroke-width="1.5" transform="translate(58.5 146.2)" id="mark-1-1" class="mark-1"></path>
  <path d="M 64.3 155.8 a 2.9 2.9 0 1 1 -2.9 -2.9 a 2.9 2.9 0 0 1 2.9 2.9" fill="#4a90c7"
    stroke-width=".7" transform="translate(58.5 146.2)" id="mark-2-2" class="mark-2"></path>
  <path d="M 310.9 144.1 a 2.9 2.9 0 1 1 -2.9 -2.9 a 2.9 2.9 0 0 1 2.9 2.9" fill="#4a90c7"
    stroke-width=".7" transform="translate(58.5 146.2)" id="mark-2-3" class="mark-2"></path>
  <path d="m 62.1 132.5 l 247.6 27.4 l -247.6 -27.4 z " fill="none" stroke="green"
    stroke-width="1.5" transform="translate(58.5 146.2)" id="mark-1-2" class="mark-1"></path>
  <path d="M 64.3 132.5 a 2.9 2.9 0 1 1 -2.9 -2.9 a 2.9 2.9 0 0 1 2.9 2.9" fill="green"
    stroke-width=".7" transform="translate(58.5 146.2)" id="mark-2-4" class="mark-2"></path>
  <path d="M 310.9 159.9 a 2.9 2.9 0 1 1 -2.9 -2.9 a 2.9 2.9 0 0 1 2.9 2.9" fill="green"
    stroke-width=".7" transform="translate(58.5 146.2)" id="mark-2-5" class="mark-2"></path>
  <path d="m 62.1 119.5 l 247.6 -34.3 l -247.6 34.3 z " fill="none" stroke="purple"
    stroke-width="1.5" transform="translate(58.5 146.2)" id="mark-1-3" class="mark-1"></path>
  <path d="M 64.3 119.5 a 2.9 2.9 0 1 1 -2.9 -2.9 a 2.9 2.9 0 0 1 2.9 2.9" fill="purple"
    stroke-width=".7" transform="translate(58.5 146.2)" id="mark-2-6" class="mark-2"></path>
  <path d="M 310.9 85.2 a 2.9 2.9 0 1 1 -2.9 -2.9 a 2.9 2.9 0 0 1 2.9 2.9" fill="purple"
    stroke-width=".7" transform="translate(58.5 146.2)" id="mark-2-7" class="mark-2"></path>
  <path d="m 62.1 19.2 l 247.6 -32.3 L 62.1 19.2" fill="none" stroke="#ff7f0e" stroke-width="1.5"
    transform="translate(58.5 146.2)" id="mark-1-4" class="mark-1"></path>
  <path d="M 64.3 19.2 a 2.9 2.9 0 1 1 -2.9 -2.9 a 2.9 2.9 0 0 1 2.9 2.9" fill="#ff7f0e"
    stroke-width=".7" transform="translate(58.5 146.2)" id="mark-2-8" class="mark-2"></path>
  <path d="M 310.9 12.2 a 2.9 2.9 0 1 1 -2.9 -2.9 a 2.9 2.9 0 0 1 2.9 2.9" fill="#ff7f0e"
    stroke-width=".7" transform="translate(58.5 146.2)" id="mark-2-9" class="mark-2"></path>
  <text fill="#444" stroke-width="0.7" transform="translate(110.2 146.2)" y="244.3" font-size="8.8"
    font-family="&quot;Open Sans&quot;,verdana,arial,sans-serif" text-anchor="middle"
    id="axis-x-label-0" class="axis-x label">1952</text>
  <text fill="#444" stroke-width="0.7" transform="translate(366.8 146.2)" y="244.3" font-size="8.8"
    font-family="&quot;Open Sans&quot;,verdana,arial,sans-serif" text-anchor="middle"
    id="axis-x-label-1" class="axis-x label">1957</text>
  <text fill="#444" stroke-width="0.7" transform="translate(58.5 375.29999999999995)" x="-1.5"
    y="4.4" font-size="8.8" font-family="&quot;Open Sans&quot;,verdana,arial,sans-serif"
    text-anchor="end" id="axis-y-label-0" class="axis-y label">2,000</text>
  <text fill="#444" stroke-width="0.7" transform="translate(58.5 326.9)" x="-1.5" y="4.4"
    font-size="8.8" font-family="&quot;Open Sans&quot;,verdana,arial,sans-serif" text-anchor="end"
    id="axis-y-label-1" class="axis-y label">4,000</text>
  <text fill="#444" stroke-width="0.7" transform="translate(58.5 278.5)" x="-1.5" y="4.4"
    font-size="8.8" font-family="&quot;Open Sans&quot;,verdana,arial,sans-serif" text-anchor="end"
    id="axis-y-label-2" class="axis-y label">6,000</text>
  <text fill="#444" stroke-width="0.7" transform="translate(58.5 230.1)" x="-1.5" y="4.4"
    font-size="8.8" font-family="&quot;Open Sans&quot;,verdana,arial,sans-serif" text-anchor="end"
    id="axis-y-label-3" class="axis-y label">8,000</text>
  <text fill="#444" stroke-width="0.7" transform="translate(58.5 181.8)" x="-1.5" y="4.4"
    font-size="8.8" font-family="&quot;Open Sans&quot;,verdana,arial,sans-serif" text-anchor="end"
    id="axis-y-label-4" class="axis-y label">10,000</text>
  <text fill="#444" stroke-width="0.7" transform="translate(58.5 133.39999999999998)" x="-1.5"
    y="4.4" font-size="8.8" font-family="&quot;Open Sans&quot;,verdana,arial,sans-serif"
    text-anchor="end" id="axis-y-label-5" class="axis-y label">12,000</text>
  <text fill="#444" stroke-width="0.7" x="235.9" y="345.2" font-size="10.2"
    font-family="&quot;Open Sans&quot;,verdana,arial,sans-serif" text-anchor="middle"
    transform="translate(0 73.1)" id="title-0" class="title">Year</text>
  <text fill="#444" stroke-width="0.7" transform="translate(0 73.1)rotate(-90 30.7 190.2)" x="30.7"
    y="190.2" font-size="10.2" font-family="&quot;Open Sans&quot;,verdana,arial,sans-serif"
    text-anchor="middle" id="title-1" class="title">GDP per capita</text>
  <path d="M 3.7 0 H 25.6" fill="none" stroke="red" stroke-width="1.5"
    transform="translate(419.6 200.29999999999998)" id="legend-mark-1-4"
    class="legend mark legend-1"></path>
  <path d="M 16.8 0 a 2.9 2.9 0 1 1 -2.9 -2.9 A 2.9 2.9 0 0 1 16.8 0" fill="red" stroke-width=".7"
    transform="translate(419.6 200.29999999999998)" id="mark-2-10" class="mark-2"></path>
  <text fill="#444" stroke-width="0.7" x="29.3" y="3.4" font-size="8.8"
    font-family="&quot;Open Sans&quot;,verdana,arial,sans-serif"
    transform="translate(419.6 200.29999999999998)" id="legend-label-4" class="legend label">Africa</text>
  <path d="M 3.7 0 H 25.6" fill="none" stroke="#4a90c7" stroke-width="1.5"
    transform="translate(419.6 214.2)" id="legend-mark-1-3" class="legend mark legend-1"></path>
  <path d="M 16.8 0 a 2.9 2.9 0 1 1 -2.9 -2.9 A 2.9 2.9 0 0 1 16.8 0" fill="#4a90c7"
    stroke-width=".7" transform="translate(419.6 214.2)" id="mark-2-11" class="mark-2"></path>
  <text fill="#444" stroke-width="0.7" x="29.3" y="3.4" font-size="8.8"
    font-family="&quot;Open Sans&quot;,verdana,arial,sans-serif" transform="translate(419.6 214.2)"
    id="legend-label-3" class="legend label">Americas</text>
  <path d="M 3.7 0 H 25.6" fill="none" stroke="green" stroke-width="1.5"
    transform="translate(419.6 228.1)" id="legend-mark-1-2" class="legend mark legend-1"></path>
  <path d="M 16.8 0 a 2.9 2.9 0 1 1 -2.9 -2.9 A 2.9 2.9 0 0 1 16.8 0" fill="green" stroke-width=".7"
    transform="translate(419.6 228.1)" id="mark-2-12" class="mark-2"></path>
  <text fill="#444" stroke-width="0.7" x="29.3" y="3.4" font-size="8.8"
    font-family="&quot;Open Sans&quot;,verdana,arial,sans-serif" transform="translate(419.6 228.1)"
    id="legend-label-2" class="legend label">Asia</text>
  <path d="M 3.7 0 H 25.6" fill="none" stroke="purple" stroke-width="1.5"
    transform="translate(419.6 242)" id="legend-mark-1-1" class="legend mark legend-1"></path>
  <path d="M 16.8 0 a 2.9 2.9 0 1 1 -2.9 -2.9 A 2.9 2.9 0 0 1 16.8 0" fill="purple"
    stroke-width=".7" transform="translate(419.6 242)" id="mark-2-13" class="mark-2"></path>
  <text fill="#444" stroke-width="0.7" x="29.3" y="3.4" font-size="8.8"
    font-family="&quot;Open Sans&quot;,verdana,arial,sans-serif" transform="translate(419.6 242)"
    id="legend-label-1" class="legend label">Europe</text>
  <path d="M 3.7 0 H 25.6" fill="none" stroke="#ff7f0e" stroke-width="1.5"
    transform="translate(419.6 255.89999999999998)" id="legend-mark-1-0"
    class="legend mark legend-1"></path>
  <path d="M 16.8 0 a 2.9 2.9 0 1 1 -2.9 -2.9 A 2.9 2.9 0 0 1 16.8 0" fill="#ff7f0e"
    stroke-width=".7" transform="translate(419.6 255.89999999999998)" id="mark-2-14" class="mark-2"></path>
  <text fill="#444" stroke-width="0.7" x="29.3" y="3.4" font-size="8.8"
    font-family="&quot;Open Sans&quot;,verdana,arial,sans-serif"
    transform="translate(419.6 255.89999999999998)" id="legend-label-0" class="legend label">Oceania</text>
  <text fill="#444" stroke-width="0.7" x="25" y="13.9" font-size="11.7"
    font-family="&quot;Open Sans&quot;,verdana,arial,sans-serif" text-anchor="middle"
    transform="translate(424.3 163.3)" id="title-2" class="title">
    <tspan fill="#444" stroke-width="0.7" font-size="11.7"
      font-family="&quot;Open Sans&quot;,verdana,arial,sans-serif" text-anchor="middle">Continent</tspan>
  </text>
</svg>